Coordinates
version=1
nRows=19
nColumns=33
inDegrees=yes

Units are S.I. units (second, meters, Newtons, ...)
Angles are in degrees.

endheader
time	ground_thorax_rot_x	ground_thorax_rot_y	ground_thorax_rot_z	ground_thorax_tx	ground_thorax_ty	ground_thorax_tz	clav_prot_r	clav_elev_r	scapula_abduction_r	scapula_elevation_r	scapula_upward_rot_r	scapula_winging_r	shoulder_elv_r	plane_of_elev_r	axial_rot_r	elbow_flexion_r	pro_sup_r	wrist_flex_r	wrist_dev_r	clav_prot_l	clav_elev_l	scapula_abduction_l	scapula_elevation_l	scapula_upward_rot_l	scapula_winging_l	shoulder_elv_l	plane_of_elev_l	axial_rot_l	elbow_flexion_l	pro_sup_l	wrist_flex_l	wrist_dev_l
      5.93000000	     30.62359421	     26.76213225	     36.57183896	   -156.34511070	    805.34867510	      6.62983039	     12.96379640	     39.12125581	     37.73205472	     45.00000000	    -34.39758603	  -1168.90178402	  -3714.85081188	    147.14540530	   -126.39723616	    733.60421903	     29.69044094	     19.74948882	      7.44294302	      7.75280868	    -45.00000000	    -37.15780700	     45.00000000	    -45.00000000	   2616.61115686	  -2806.15043433	     21.86101215	    -51.31474415	    730.01368902	     12.92186764	      8.26725535	    -19.67652070
      5.94000000	     30.91386417	     26.41302290	     35.92803424	   -159.67073383	    806.79410980	      6.44673003	     12.93173211	     39.11558228	     37.84153658	     45.00000000	    -34.26091822	  -1169.06732563	  -3714.64839522	    147.08406398	   -126.59038384	    733.65992866	     29.74034685	     19.77909017	      7.31067189	      7.78452934	    -45.00000000	    -37.19060167	     45.00000000	    -45.00000000	   2616.75570664	  -2805.94085815	     21.98892058	    -50.99862064	    730.04975232	     12.43506520	      8.16374438	    -19.71239120
      5.95000000	     31.30858239	     26.05741955	     35.08251320	   -163.00866784	    808.23702989	      6.26731845	     12.92142473	     39.43155885	     37.86245647	     45.00000000	    -33.72393190	  -1169.16302751	  -3714.36188306	    147.20335799	   -126.75148592	    733.76642245	     29.76062111	     19.82955420	      7.21865352	      7.70287385	    -45.00000000	    -37.24041238	     45.00000000	    -45.00000000	   2616.79003462	  -2805.71842844	     22.06344903	    -51.15631310	    730.21323363	     12.02767144	      8.03490543	    -19.77419992
      5.96000000	     31.54381415	     25.64029739	     34.55752622	   -166.34452657	    809.66918329	      6.09381535	     12.85112658	     39.17519621	     38.03086698	     45.00000000	    -33.76507782	  -1169.39328041	  -3714.29027521	    147.03129547	   -126.83523074	    733.76860005	     29.74374561	     19.83730087	      7.08468890	      7.82251618	    -45.00000000	    -37.24302572	     45.00000000	    -45.00000000	   2617.02227273	  -2805.56247139	     22.21560575	    -50.47009838	    730.12140821	     11.48640897	      7.93205734	    -19.78086216
      5.97000000	     31.75295387	     25.32507843	     34.01230136	   -169.67713632	    811.08805297	      5.92627360	     12.82137209	     39.13029207	     38.11130266	     45.00000000	    -33.93018735	  -1169.53802244	  -3714.08483120	    146.90080208	   -127.04872136	    733.79311508	     29.62705180	     19.83106031	      6.90698716	      7.90138074	    -45.00000000	    -37.31394761	     45.00000000	    -45.00000000	   2617.20413565	  -2805.35927358	     22.28039658	    -50.16533221	    730.16151657	     10.90936600	      7.87013410	    -19.80910380
      5.98000000	     32.01545882	     24.98018596	     33.38768483	   -172.99686479	    812.48843304	      5.76435021	     12.78569146	     39.15336998	     38.18884669	     45.00000000	    -33.89673173	  -1169.67219589	  -3713.90028258	    146.86876166	   -127.22346636	    733.80162216	     29.43783009	     19.83113627	      6.75980999	      7.96502610	    -45.00000000	    -37.37353154	     45.00000000	    -45.00000000	   2617.34641365	  -2805.17109264	     22.35201303	    -49.89334606	    730.19522566	     10.33099852	      7.84013790	    -19.83878176
      5.99000000	     32.33298723	     24.59953129	     32.73552405	   -176.30333712	    813.86963297	      5.60652568	     12.76573763	     39.13141229	     38.24784165	     45.00000000	    -33.68052889	  -1169.83567837	  -3713.68485097	    146.82220508	   -127.16803665	    733.88145980	     29.23336783	     19.87114384	      6.71176375	      7.90852227	    -45.00000000	    -37.34741344	     45.00000000	    -45.00000000	   2617.52945408	  -2804.98167972	     22.42687864	    -50.11233389	    730.26648473	      9.86947703	      7.55488099	    -19.85402342
      6.00000000	     32.61750580	     24.27326638	     32.10411855	   -179.58523440	    815.22737780	      5.45225007	     12.77359921	     39.28676966	     38.25682671	     45.00000000	    -33.41577733	  -1169.91505621	  -3713.46139841	    146.93071743	   -127.19161597	    733.96045866	     28.98009897	     19.89455723	      6.62070980	      7.87910611	    -45.00000000	    -37.36145020	     45.00000000	    -45.00000000	   2617.61357331	  -2804.69369293	     22.40532969	    -50.28319016	    730.37129738	      9.46843364	      7.43709949	    -19.89377436
      6.01000000	     32.84995345	     23.90363819	     31.52961902	   -182.84762711	    816.56476054	      5.30090506	     12.71943609	     39.10800117	     38.38143119	     45.00000000	    -33.54588151	  -1170.08612271	  -3713.32952314	    146.82318596	   -127.23116006	    733.90720593	     28.69614851	     19.89049183	      6.49721452	      7.95215308	    -45.00000000	    -37.39451664	     45.00000000	    -45.00000000	   2617.81638739	  -2804.58755841	     22.50234122	    -50.01407006	    730.33813588	      9.01175439	      7.26670938	    -19.90485194
      6.02000000	     33.13368651	     23.45609553	     30.81441890	   -186.08933559	    817.88150389	      5.15374321	     12.66380679	     39.16142637	     38.41247013	     45.00000000	    -33.38766149	  -1170.23328533	  -3713.21809883	    146.77817341	   -127.26888555	    733.93132647	     28.43147329	     19.89196363	      6.32119112	      7.96142824	    -45.00000000	    -37.46607468	     45.00000000	    -44.58120981	   2618.01716386	  -2804.45315629	     22.48170324	    -50.03741784	    730.40036411	      8.63915432	      7.18811293	    -19.95077511
      6.03000000	     33.34556586	     23.15224016	     30.33210242	   -189.30230696	    819.17359512	      5.01329658	     12.62676808	     39.09584397	     38.50591769	     45.00000000	    -33.52525864	  -1170.34814290	  -3713.04101239	    146.72878955	   -127.32737217	    733.86661814	     28.20699102	     19.86699590	      6.12195965	      8.05572002	    -45.00000000	    -37.54700531	     45.00000000	    -44.81421108	   2618.16661885	  -2804.29547176	     22.50582874	    -49.76768227	    730.35217201	      8.22708929	      7.15705308	    -19.97152967
      6.04000000	     33.59157434	     22.76930052	     29.70863000	   -192.48696141	    820.43869861	      4.88239965	     12.58543968	     39.08503680	     38.54980184	     45.00000000	    -33.42968177	  -1170.47715364	  -3712.95526448	    146.74034420	   -127.34641745	    733.85595355	     28.10853740	     19.85723858	      5.93774222	      8.08610089	    -45.00000000	    -37.55002019	     45.00000000	    -44.59749197	   2618.35160754	  -2804.16498785	     22.52217097	    -49.73047293	    730.38233732	      7.90743880	      7.06416136	    -20.01231506
      6.05000000	     33.86737163	     22.33890415	     29.05328866	   -195.65048660	    821.67551431	      4.76329813	     12.56236365	     39.04830482	     38.55064202	     45.00000000	    -33.26511518	  -1170.58057496	  -3712.82556498	    146.70451486	   -127.19157047	    733.88370325	     28.17501012	     19.85933464	      5.81668547	      8.03616530	    -45.00000000	    -37.54887785	     45.00000000	    -44.20095140	   2618.54564728	  -2804.00935019	     22.45094211	    -50.25521379	    730.40670029	      7.73730330	      6.81383144	    -20.03610780
      6.06000000	     34.13740113	     21.95505992	     28.40122997	   -198.78253004	    822.87486979	      4.65855330	     12.57021756	     39.52993004	     38.38782322	     45.00000000	    -32.55945126	  -1170.47815598	  -3712.59259975	    147.03618104	   -127.05965635	    734.00378416	     28.35203687	     19.90336682	      5.81416400	      7.90103260	    -45.00000000	    -37.41380731	     45.00000000	    -43.48420914	   2618.60450118	  -2803.69030374	     22.14498143	    -51.35721938	    730.56192010	      7.75631625	      6.74726995	    -20.10777739
      6.07000000	     34.44200545	     21.40981608	     27.56170880	   -201.88692042	    824.03360924	      4.56931454	     12.45483969	     39.91378167	     38.36096085	     45.00000000	    -31.95783212	  -1170.50267493	  -3712.53227700	    147.21067329	   -126.96400625	    734.09328228	     28.57825462	     19.90121999	      5.61867905	      7.86129560	    -45.00000000	    -37.52310366	     45.00000000	    -42.49048345	   2618.76474763	  -2803.55768595	     21.87077389	    -51.76554340	    730.65799350	      7.75458844	      6.90946948	    -20.20031530
      6.08000000	     34.45415789	     21.39339341	     27.58350710	   -204.95967664	    825.14612715	      4.49675857	     12.45334366	     39.01089290	     38.63205712	     45.00000000	    -33.42158886	  -1170.86049386	  -3712.44584432	    146.76628879	   -127.13953216	    733.95153237	     29.01536961	     19.72751341	      5.11955338	      8.18721825	    -45.00000000	    -37.54946479	     45.00000000	    -44.41769160	   2619.04036002	  -2803.57991438	     22.43631780	    -50.21632334	    730.48366999	      7.35701735	      6.42500424	    -20.13807409
      6.09000000	     34.75570987	     20.98647624	     26.91962870	   -208.00243223	    826.21003657	      4.44162045	     12.42774061	     39.40168747	     38.46229435	     45.00000000	    -32.80168714	  -1170.83901174	  -3712.25423934	    146.92479742	   -126.69517751	    734.08778469	     29.47733197	     19.75192288	      5.11524326	      7.97323037	    -45.00000000	    -37.37667177	     45.00000000	    -43.54866047	   2619.14557835	  -2803.31155339	     22.09385359	    -51.79453221	    730.64210764	      7.52219853	      6.26726189	    -20.19073364
      6.10000000	     34.94908590	     20.62786889	     26.39442615	   -211.01084306	    827.22436870	      4.40471074	     12.35088127	     39.63818934	     38.37494175	     45.00000000	    -32.49771570	  -1170.89730996	  -3712.19171682	    147.07095792	   -126.53325808	    734.19811653	     29.93826772	     19.71833523	      4.94940978	      7.98513997	    -45.00000000	    -37.37132855	     45.00000000	    -43.09538249	   2619.31696569	  -2803.13598927	     21.88273201	    -52.16703198	    730.75983687	      7.56991133	      6.33127036	    -20.25498518
      6.11000000	     35.00614938	     20.51054551	     26.25825975	   -213.98030509	    828.18886883	      4.38658225	     12.39973112	     38.84255057	     38.53508330	     45.00000000	    -33.65659903	  -1171.15223817	  -3712.14439825	    146.66621646	   -126.79967868	    734.03195361	     30.61179063	     19.44322195	      4.37730867	      8.22971408	    -45.00000000	    -37.45712779	     45.00000000	    -44.57864691	   2619.61705608	  -2803.21401276	     22.34078782	    -50.98462311	    730.54439921	      7.34172985	      5.83284772	    -20.15302324
